<svg xmlns="http://www.w3.org/2000/svg" xmlns:xlink="http://www.w3.org/1999/xlink" version="1.1" x="0px" y="0px" viewBox="0 0 100 125" style="enable-background:new 0 0 100 100;" xml:space="preserve"><symbol viewBox="-19.614 -20.347 39.228 46.027"><g><path style="" d="M0-5.167c-7.953,0-14.424,6.47-14.424,14.424S-7.954,23.68,0,23.68s14.424-6.47,14.424-14.423    S7.953-5.167,0-5.167z" fill="#5db2a6"/><path style="" d="M0,21.68c6.85,0,12.423-5.573,12.423-12.423S6.85-3.167,0-3.167S-12.424,2.406-12.424,9.256    S-6.851,21.68,0,21.68 M0,25.68c-9.07,0-16.423-7.353-16.423-16.423S-9.071-7.167,0-7.167S16.423,0.186,16.423,9.256    S9.07,25.68,0,25.68L0,25.68z" fill="#5db2a6"/></g><g><path style="" d="M0,0.166c-5.012,0-9.09,4.078-9.09,9.09s4.078,9.09,9.09,9.09s9.09-4.078,9.09-9.09    S5.012,0.166,0,0.166z" fill="#5db2a6"/><path d="M0,16.347c3.91,0,7.09-3.181,7.09-7.09S3.909,2.166,0,2.166s-7.09,3.181-7.09,7.09S-3.91,16.347,0,16.347 M0,20.347    c-6.125,0-11.09-4.965-11.09-11.09S-6.125-1.834,0-1.834s11.09,4.965,11.09,11.09S6.125,20.347,0,20.347L0,20.347z"/></g><path style="" d="M17.613-20.347   c0,7.06-5.776,12.836-12.836,12.836h-9.555c-7.06,0-12.836-5.776-12.836-12.836" fill="#5db2a6" stroke="#5db2a6" stroke-width="4" stroke-miterlimit="3"/></symbol><g style="" display="none"><ellipse style="" cx="-30.692" cy="511.473" rx="887.752" ry="795.256" display="inline" fill="#5db2a6" stroke="#5db2a6" stroke-miterlimit="10"/></g><g><path fill="#5db2a6"  d="M50,95c24.813,0,45-20.187,45-45C95,25.187,74.813,5,50,5S5,25.187,5,50C5,74.813,25.187,95,50,95z M50,11.09   c21.455,0,38.91,17.455,38.91,38.91c0,21.455-17.455,38.91-38.91,38.91S11.09,71.455,11.09,50C11.09,28.545,28.545,11.09,50,11.09z   "/><path fill="#5db2a6"  d="M38.29,69.966h4.734v5.889c0,1.402,1.136,2.538,2.538,2.538s2.538-1.136,2.538-2.538v-5.889h1.677v5.889   c0,1.402,1.136,2.538,2.538,2.538s2.538-1.136,2.538-2.538v-5.889h0.667c5.932,0,10.758-4.826,10.758-10.759v-0.986   c0-4.195-2.42-7.828-5.931-9.601c2.088-1.964,3.401-4.742,3.401-7.827c0-5.295-3.849-9.699-8.894-10.586v-6.061   c0-1.402-1.136-2.538-2.538-2.538s-2.538,1.136-2.538,2.538v5.889H48.1v-5.889c0-1.402-1.136-2.538-2.538-2.538   s-2.538,1.136-2.538,2.538v5.889H38.29c-1.402,0-2.538,1.136-2.538,2.538v16.442c0,0.169,0.018,0.334,0.05,0.493   c-0.031,0.16-0.05,0.324-0.05,0.493v17.428C35.753,68.83,36.889,69.966,38.29,69.966z M40.828,35.109h12.16   c3.134,0,5.684,2.549,5.684,5.683s-2.549,5.683-5.684,5.683h-12.16V35.109z M40.828,52.538h14.691c3.133,0,5.683,2.549,5.683,5.683   v0.986c0,3.134-2.549,5.683-5.683,5.683H40.828V52.538z"/></g></svg>
