<svg xmlns:dc="http://purl.org/dc/elements/1.1/" xmlns:cc="http://creativecommons.org/ns#" xmlns:rdf="http://www.w3.org/1999/02/22-rdf-syntax-ns#" xmlns:svg="http://www.w3.org/2000/svg" xmlns="http://www.w3.org/2000/svg" xmlns:sodipodi="http://sodipodi.sourceforge.net/DTD/sodipodi-0.dtd" xmlns:inkscape="http://www.inkscape.org/namespaces/inkscape" viewBox="10 0 50 70" version="1.1" x="0px" y="0px"><g transform="translate(-82.393755,-105.33571)" style="" display="inline"><g style="" transform="matrix(0.26458333,0,0,0.26458333,-33.403463,56.772625)" display="inline"><path style="color:#000000;font-style:normal;font-variant:normal;font-weight:normal;font-stretch:normal;font-size:medium;line-height:normal;font-family:sans-serif;font-variant-ligatures:normal;font-variant-position:normal;font-variant-caps:normal;font-variant-numeric:normal;font-variant-alternates:normal;font-feature-settings:normal;text-indent:0;text-align:start;text-decoration:none;text-decoration-line:none;text-decoration-style:solid;text-decoration-color:#000000;letter-spacing:normal;word-spacing:normal;text-transform:none;writing-mode:lr-tb;direction:ltr;text-orientation:mixed;dominant-baseline:auto;baseline-shift:baseline;text-anchor:start;white-space:normal;shape-padding:0;clip-rule:nonzero;display:inline;overflow:visible;visibility:visible;opacity:1;isolation:auto;mix-blend-mode:normal;color-interpolation:sRGB;color-interpolation-filters:linearRGB;solid-color:#000000;solid-opacity:1;vector-effect:none;fill:#5db2a6;fill-opacity:1;fill-rule:nonzero;stroke:none;stroke-width:12;stroke-linecap:round;stroke-linejoin:round;stroke-miterlimit:4;stroke-dasharray:none;stroke-dashoffset:0;stroke-opacity:1;paint-order:normal;color-rendering:auto;image-rendering:auto;shape-rendering:auto;text-rendering:auto;enable-background:accumulate" d="m 132.2832,12.283203 c -66.203092,0 -119.999997,53.796905 -119.999997,119.999997 0,66.2031 53.796905,120 119.999997,120 66.20309,0 120,-53.7969 120,-120 0,-66.203092 -53.79691,-119.999997 -120,-119.999997 z m 0,12 c 59.71781,0 108,48.282185 108,107.999997 0,59.71782 -48.28219,108 -108,108 -59.717812,0 -107.999997,-48.28218 -107.999997,-108 0,-59.717812 48.282185,-107.999997 107.999997,-107.999997 z m 8.93164,31.482422 a 5.8306039,6.1755526 0 0 0 -5.59179,4.3125 l -19.67774,62.767575 -17.291013,2.89649 a 5.8306873,6.1756409 0 1 0 1.824223,12.19922 l 11.32812,-1.89844 -17.753906,56.62891 a 5.8306039,6.1755526 0 0 0 5.535157,8.12109 l 65.416019,-0.0508 a 5.8306039,6.1755526 0 1 0 -0.008,-12.34961 l -57.33203,0.0449 17.10938,-54.56641 17.32617,-2.90429 a 5.8306039,6.1755526 0 0 0 -0.83789,-12.28907 5.8306039,6.1755526 0 0 0 -0.98438,0.0898 l -11.36523,1.9043 17.77734,-56.701177 a 5.8306039,6.1755526 0 0 0 -5.47461,-8.205078 z" transform="translate(437.65878,183.54552)"/></g></g></svg>
