<svg xmlns="http://www.w3.org/2000/svg" xmlns:xlink="http://www.w3.org/1999/xlink" version="1.1" x="0px" y="0px" viewBox="-949 951 100 125" style="enable-background:new -949 951 100 100;" xml:space="preserve"><path fill="#5db2a6" d="M-885,999.7v-0.1c3.8-2,5.9-5.7,5.9-10.3c0-5.4-3-9.4-7.3-11.1c-1.9-0.8-3.9-1.1-6.4-1.2v-6.8c0-0.3-0.2-0.5-0.5-0.5     h-3.8c-0.3,0-0.5,0.2-0.5,0.5v6.7h-5.1v-6.7c0-0.3-0.2-0.5-0.5-0.5h-3.8c-0.3,0-0.5,0.2-0.5,0.5v6.7h-8.7c-0.5,0-1,0.4-1,1v4.8     c0,0.5,0.4,1,1,1h2.1c1.5,0,2.7,1.2,2.7,2.7v29.2c0,1.5-1.2,2.7-2.7,2.7h-2.1c-0.5,0-1,0.4-1,1v4.7c0,0.5,0.4,1,1,1h8.7v6.7     c0,0.3,0.2,0.5,0.5,0.5h3.8c0.3,0,0.5-0.2,0.5-0.5v-6.7h5.1v6.7c0,0.3,0.2,0.5,0.5,0.5h3.8c0.3,0,0.5-0.2,0.5-0.5v-6.7     c2.1,0,4-0.2,6-0.8c5.2-1.6,9.5-6.3,9.5-13C-877.2,1006-879.7,1001.4-885,999.7z M-902.4,984.1h7.4c1.7,0,3.1,0.3,4.1,0.7     c1.9,1,2.8,3.1,2.8,5.5c0,3.7-2.1,6.3-5.9,6.3h-8.4V984.1z M-890.1,1017.3c-1,0.5-2.3,0.5-3.4,0.5h-8.9v-14.2h9.2     c4.4,0,7,2.8,7,7C-886.2,1013.6-887.6,1016.3-890.1,1017.3z"/><path fill="#5db2a6" d="M-899,953.5c-26.2,0-47.5,21.3-47.5,47.5s21.3,47.5,47.5,47.5s47.5-21.3,47.5-47.5S-872.8,953.5-899,953.5z M-899,1040.1     c-21.6,0-39.1-17.5-39.1-39.1s17.5-39.1,39.1-39.1s39.1,17.5,39.1,39.1S-877.4,1040.1-899,1040.1z"/></svg>
