<svg xmlns="http://www.w3.org/2000/svg" xmlns:xlink="http://www.w3.org/1999/xlink" version="1.1" x="0px" y="0px" viewBox="0 0 100 125" style="enable-background:new 0 0 100 100;" xml:space="preserve"><style type="text/css">
	.st0{fill:#231F20;}
</style><g><path d="M50,7.9C26.8,7.9,7.9,26.8,7.9,50S26.8,92.1,50,92.1S92.1,73.2,92.1,50S73.2,7.9,50,7.9z M50,87.5   c-20.7,0-37.5-16.8-37.5-37.5S29.3,12.5,50,12.5S87.5,29.3,87.5,50S70.7,87.5,50,87.5z"/><path d="M66.2,47.7L51.1,24.3c-0.5-0.8-1.7-0.8-2.2,0L33.9,47.6l16.2,11.2L66.2,47.7z"/><path d="M50.2,61.7c-0.3,0-0.5-0.1-0.8-0.2L32.6,49.9c0,0.3,0,0.6,0.2,0.8l16,24.9c0.2,0.4,0.7,0.6,1.1,0.6c0.5,0,0.9-0.2,1.1-0.6   l16-24.9c0.1-0.2,0.2-0.4,0.2-0.5L50.9,61.5C50.7,61.7,50.4,61.7,50.2,61.7z"/></g></svg>
